<?xml version="1.0" encoding="UTF-8" standalone="no"?><!DOCTYPE svg PUBLIC "-//W3C//DTD SVG 1.1//EN" "http://www.w3.org/Graphics/SVG/1.1/DTD/svg11.dtd"><svg width="100%" height="100%" viewBox="0 0 667 667" version="1.1" xmlns="http://www.w3.org/2000/svg" xmlns:xlink="http://www.w3.org/1999/xlink" xml:space="preserve" xmlns:serif="http://www.serif.com/" style="fill-rule:evenodd;clip-rule:evenodd;stroke-linejoin:round;stroke-miterlimit:2;"><g><path d="M494.05,0.585c82.783,0 137.583,-10.489 166.298,57.328c6.4,15.116 5.67,15.799 5.665,499.523c-0,12.215 7.738,68.143 -46.784,98.704c-21.123,11.84 -22.594,10.344 -380.537,10.344c-165.627,0 -192.377,7.112 -224.109,-39.813c-16.703,-24.7 -14.468,-26.988 -14.468,-317.192c-0,-241.921 -2.362,-244.191 14.468,-269.081c32.099,-47.467 73.429,-39.813 168.597,-39.813l310.871,0Z" style="fill:#625bf7;"/><path d="M166.651,179.95c0.399,-14.237 -1.408,-15.045 2.105,-18.06c2.995,-2.57 325.619,-2.569 328.613,0c5.391,4.627 2.331,101.945 2.052,110.807c-0.276,8.792 -18.146,7.894 -46.075,7.114c-11.59,-0.324 -5.99,-6.884 -7.457,-59.147c-0.207,-7.372 -9.989,-7.409 -11.054,-7.413c-156.668,-0.592 -156.918,-2.956 -170.061,0.558c-6.553,1.752 -6.597,4.154 -4.95,84.649c0.247,12.06 7.309,6.439 111.988,8.485c6.95,0.136 8.902,8.133 7.441,46.938c-0.281,7.456 -4.91,4.167 -111.038,6.339c-8.286,0.17 -8.242,6.269 -8.391,8.391c-0.061,0.871 -0.045,77.548 -0.014,77.907c1.108,13.176 36.045,3.901 38.987,10.485c1.728,3.867 0.718,44.398 0.401,45.434c-2.891,9.45 -7.294,5.091 -123.448,4.293c-13.148,-0.09 -9.143,-20.972 -9.1,-41.84c0.018,-8.764 0.226,-10.991 9.126,-11.069c20.937,-0.184 30.647,6.312 30.713,-14.812c0.227,-72.821 1.921,-78.063 -8.427,-78.789c-12.904,-0.905 -12.75,0.986 -25.815,-0.14c-3.788,-0.326 -7.77,-1.219 -5.493,-47.21c0.294,-5.937 8.171,-5.98 9.038,-5.984c7.423,-0.04 14.848,0.115 22.269,-0.037c8.284,-0.17 8.242,-6.263 8.391,-8.391c0.061,-0.871 0.045,-77.548 0.014,-77.907c-1.024,-12.181 -33.052,-5.764 -37.236,-8.494c-2.857,-1.864 -2.605,-29.53 -2.582,-32.107Z" style="fill:#fefefe;"/></g></svg>