<?xml version="1.0" encoding="UTF-8" standalone="no"?><!DOCTYPE svg PUBLIC "-//W3C//DTD SVG 1.1//EN" "http://www.w3.org/Graphics/SVG/1.1/DTD/svg11.dtd"><svg width="100%" height="100%" viewBox="0 0 140 108" version="1.1" xmlns="http://www.w3.org/2000/svg" xmlns:xlink="http://www.w3.org/1999/xlink" xml:space="preserve" xmlns:serif="http://www.serif.com/" style="fill-rule:evenodd;clip-rule:evenodd;stroke-linejoin:round;stroke-miterlimit:2;"><g id="g1"><path id="path58" d="M0,107.075l67.504,-107.075l41.899,0l0,14.897l-58.193,92.177" style="fill:#fbbc04;fill-rule:nonzero;"/><rect id="path64" x="67.504" y="0" width="41.899" height="107.075" style="fill:#1a73e8;fill-rule:nonzero;"/><path id="path70" d="M139.662,76.814c0,16.713 -13.547,30.26 -30.26,30.26l0,-60.52c16.713,0 30.26,13.547 30.26,30.26Z" style="fill:#34a853;fill-rule:nonzero;"/><path id="path76" d="M109.402,107.075c-16.713,0 -30.26,-13.547 -30.26,-30.26c0,-16.713 13.547,-30.26 30.26,-30.26l0,60.52Z" style="fill:#0d652d;fill-rule:nonzero;"/><path id="path82" d="M132.679,23.277c0,12.854 -10.419,23.277 -23.277,23.277l0,-46.554c12.858,0 23.277,10.423 23.277,23.277Z" style="fill:#1a73e8;fill-rule:nonzero;"/><path id="path88" d="M109.402,46.554c-12.858,0 -23.277,-10.423 -23.277,-23.277c0,-12.854 10.419,-23.277 23.277,-23.277l0,46.554Z" style="fill:#174ea6;fill-rule:nonzero;"/><path id="path94" d="M2.328,20.949c0,-11.569 9.381,-20.949 20.949,-20.949c11.569,0 20.949,9.381 20.949,20.949c0,11.569 -9.381,20.949 -20.949,20.949c-11.569,0 -20.949,-9.381 -20.949,-20.949Z" style="fill:#ea4335;fill-rule:nonzero;"/></g></svg>